ffmpeg started on 2016-11-28 at 01:37:31
Report written to "Output/NVENCh264/results/ffmpeg/old_town_cross_2160p50llhp6000k.log"
Command line:
Tools/ffmpeg/ffmpeg -benchmark -y -i Input/y4m/old_town_cross_2160p50.y4m -c:v h264_nvenc -preset llhp -b:v 6000k -an Output/NVENCh264/encoded/old_town_cross_2160p50llhp6000k.mkv
ffmpeg version N-82227-gdb23fde Copyright (c) 2000-2016 the FFmpeg developers
  built with gcc 5.4.0 (Ubuntu 5.4.0-6ubuntu1~16.04.2) 20160609
  configuration: --prefix=/home/jaroslav/ffmpeg_build --pkg-config-flags=--static --extra-cflags=-I/home/jaroslav/ffmpeg_build/include --extra-ldflags=-L/home/jaroslav/ffmpeg_build/lib --bindir=/home/jaroslav/bin --enable-gpl --enable-libass --enable-libfdk-aac --enable-libfreetype --enable-libmp3lame --enable-libopus --enable-libtheora --enable-libvorbis --enable-libvpx --enable-libx264 --enable-libx265 --enable-nvenc --enable-libmfx --enable-libxvid --enable-libgsm --enable-libopencore-amrnb --enable-version3 --enable-nonfree
  libavutil      55. 35.100 / 55. 35.100
  libavcodec     57. 66.101 / 57. 66.101
  libavformat    57. 57.100 / 57. 57.100
  libavdevice    57.  2.100 / 57.  2.100
  libavfilter     6. 66.100 /  6. 66.100
  libswscale      4.  3.100 /  4.  3.100
  libswresample   2.  4.100 /  2.  4.100
  libpostproc    54.  2.100 / 54.  2.100
Input #0, yuv4mpegpipe, from 'Input/y4m/old_town_cross_2160p50.y4m':
  Duration: 00:00:10.00, start: 0.000000, bitrate: 4976642 kb/s
    Stream #0:0: Video: rawvideo (I420 / 0x30323449), yuv420p(progressive), 3840x2160, SAR 1:1 DAR 16:9, 50 fps, 50 tbr, 50 tbn, 50 tbc
[h264_nvenc @ 0x3d41120] The variable bitrate rate-control requires the 'qmin' and/or 'qmax' option set.
Output #0, matroska, to 'Output/NVENCh264/encoded/old_town_cross_2160p50llhp6000k.mkv':
  Metadata:
    encoder         : Lavf57.57.100
    Stream #0:0: Video: h264 (h264_nvenc) (Main) (H264 / 0x34363248), yuv420p, 3840x2160 [SAR 1:1 DAR 16:9], q=-1--1, 6000 kb/s, 50 fps, 1k tbn, 50 tbc
    Metadata:
      encoder         : Lavc57.66.101 h264_nvenc
    Side data:
      cpb: bitrate max/min/avg: 0/0/6000000 buffer size: 12000000 vbv_delay: -1
Stream mapping:
  Stream #0:0 -> #0:0 (rawvideo (native) -> h264 (h264_nvenc))
Press [q] to stop, [?] for help
frame=   19 fps=0.0 q=0.0 size=       0kB time=00:00:00.00 bitrate=N/A speed=   0x    frame=   37 fps= 36 q=39.0 size=       1kB time=00:00:00.12 bitrate=  49.4kbits/s speed=0.119x    frame=   55 fps= 36 q=36.0 size=       1kB time=00:00:00.48 bitrate=  12.4kbits/s speed=0.314x    frame=   73 fps= 36 q=36.0 size=       1kB time=00:00:00.84 bitrate=   7.1kbits/s speed=0.411x    frame=   85 fps= 31 q=35.0 size=       1kB time=00:00:01.08 bitrate=   5.5kbits/s speed=0.396x    frame=  102 fps= 32 q=36.0 size=       1kB time=00:00:01.42 bitrate=   4.2kbits/s speed=0.44x    frame=  120 fps= 32 q=34.0 size=       1kB time=00:00:01.78 bitrate=   3.4kbits/s speed=0.475x    frame=  138 fps= 32 q=35.0 size=       1kB time=00:00:02.14 bitrate=   2.8kbits/s speed=0.502x    frame=  156 fps= 33 q=33.0 size=       1kB time=00:00:02.50 bitrate=   2.4kbits/s speed=0.523x    frame=  174 fps= 33 q=34.0 size=       1kB time=00:00:02.86 bitrate=   2.1kbits/s speed=0.54x    frame=  192 fps= 33 q=33.0 size=       1kB time=00:00:03.22 bitrate=   1.9kbits/s speed=0.554x    frame=  210 fps= 33 q=34.0 size=       1kB time=00:00:03.58 bitrate=   1.7kbits/s speed=0.566x    frame=  227 fps= 33 q=34.0 size=       1kB time=00:00:03.92 bitrate=   1.5kbits/s speed=0.569x    frame=  236 fps= 32 q=33.0 size=       1kB time=00:00:04.10 bitrate=   1.5kbits/s speed=0.555x    frame=  254 fps= 32 q=33.0 size=       1kB time=00:00:04.46 bitrate=   1.3kbits/s speed=0.564x    frame=  272 fps= 32 q=34.0 size=       1kB time=00:00:04.82 bitrate=   1.2kbits/s speed=0.572x    frame=  290 fps= 32 q=36.0 size=    3519kB time=00:00:05.18 bitrate=5563.4kbits/s speed=0.578x    frame=  308 fps= 33 q=37.0 size=    3519kB time=00:00:05.54 bitrate=5201.9kbits/s speed=0.585x    frame=  326 fps= 33 q=38.0 size=    3519kB time=00:00:05.90 bitrate=4884.6kbits/s speed=0.591x    frame=  344 fps= 33 q=36.0 size=    3519kB time=00:00:06.26 bitrate=4603.7kbits/s speed=0.597x    frame=  362 fps= 33 q=34.0 size=    3519kB time=00:00:06.62 bitrate=4353.4kbits/s speed=0.602x    frame=  380 fps= 33 q=33.0 size=    3519kB time=00:00:06.98 bitrate=4128.9kbits/s speed=0.606x    frame=  398 fps= 33 q=34.0 size=    3519kB time=00:00:07.34 bitrate=3926.4kbits/s speed=0.61x    frame=  416 fps= 33 q=34.0 size=    3519kB time=00:00:07.70 bitrate=3742.9kbits/s speed=0.614x    frame=  426 fps= 33 q=34.0 size=    3519kB time=00:00:07.90 bitrate=3648.1kbits/s speed=0.605x    frame=  444 fps= 33 q=34.0 size=    3519kB time=00:00:08.26 bitrate=3489.2kbits/s speed=0.609x    frame=  462 fps= 33 q=34.0 size=    3519kB time=00:00:08.62 bitrate=3343.5kbits/s speed=0.612x    frame=  480 fps= 33 q=34.0 size=    3519kB time=00:00:08.98 bitrate=3209.4kbits/s speed=0.615x    frame=  486 fps= 32 q=36.0 size=    3519kB time=00:00:09.10 bitrate=3167.1kbits/s speed=0.602x    frame=  500 fps= 32 q=36.0 Lsize=    7185kB time=00:00:09.98 bitrate=5897.1kbits/s speed=0.641x    
video:7181kB audio:0kB subtitle:0kB other streams:0kB global headers:0kB muxing overhead: 0.060370%
bench: utime=1.096s
bench: maxrss=1408852kB
